<?xml version="1.0" encoding="utf-8"?>
<svg viewBox="292.0385 325.41 439.9228 117.18" xmlns="http://www.w3.org/2000/svg" xmlns:xlink="http://www.w3.org/1999/xlink">
  <g id="logo-group">
    <image id="container" x="272" y="144" width="480" height="480" style="display: none;" transform="translate(0 0)" xlink:href=""/>
    <g id="logo-center" transform="translate(0 0)">
      <image id="icon_container" x="0" y="0" style="display: none;" xlink:href=""/>
      <g id="slogan" style="font-style:normal;font-weight:600;font-size:32px;line-height:1;font-family:Karma;font-variant-ligatures:none;text-align:center;text-anchor:middle" transform="translate(0 0)"/>
      <g id="title" style="font-style:normal;font-weight:normal;font-size:72px;line-height:1;font-family:'Brandmark Sans 30 Bold';font-variant-ligatures:normal;text-align:center;text-anchor:middle" transform="translate(0 0)">
        <path id="path446895" style="font-style:normal;font-weight:normal;font-size:72px;line-height:1;font-family:'Brandmark Sans 30 Bold';font-variant-ligatures:normal;text-align:center;text-anchor:middle" d="m 463.74144,-13.536 h -9.72 c -1.368,4.104 -2.664,4.536 -9.432,4.536 -10.08,0 -10.872,-0.936 -10.872,-14.112 0,-13.392 0.576,-13.968 10.872,-13.968 7.848,0 8.712,0.36 9.864,5.616 h 9.504 c -1.728,-10.368 -7.632,-14.976 -19.368,-14.976 -14.4,0 -20.232,6.264 -20.232,23.328 0,16.416 5.616,23.472 20.232,23.472 10.656,0 16.848,-4.248 19.152,-13.896 z" stroke-width="0" stroke-linejoin="miter" stroke-miterlimit="2" fill="#fff" stroke="#0068c4" transform="translate(0 345.06999999999994) translate(292.03860000000003 -19.659999999999997) scale(2.5) translate(-424.35744 46.44)"/>
        <path id="path446897" style="font-style:normal;font-weight:normal;font-size:72px;line-height:1;font-family:'Brandmark Sans 30 Bold';font-variant-ligatures:normal;text-align:center;text-anchor:middle" d="m 484.74744,0.432 c 4.752,0 8.496,-1.728 11.232,-4.68 V 0 h 9.36 v -37.44 h -9.36 v 4.248 c -2.736,-2.88 -6.48,-4.608 -11.232,-4.608 -10.512,0 -17.64,8.496 -17.64,18.936 0,10.728 7.128,19.296 17.64,19.296 z m -9,-19.296 c 0,-6.264 3.384,-10.008 8.28,-10.008 h 4.32 c 4.896,0 7.632,3.024 7.632,7.848 v 4.32 c 0,4.824 -2.736,7.848 -7.632,7.848 h -4.32 c -4.896,0 -8.28,-3.744 -8.28,-10.008 z" stroke-width="0" stroke-linejoin="miter" stroke-miterlimit="2" fill="#fff" stroke="#0068c4" transform="translate(0 345.06999999999994) translate(398.9136 1.9399999999999977) scale(2.5) translate(-467.10744 37.8)"/>
        <path id="path446899" style="font-style:normal;font-weight:normal;font-size:72px;line-height:1;font-family:'Brandmark Sans 30 Bold';font-variant-ligatures:normal;text-align:center;text-anchor:middle" d="m 529.04319,0.432 c 10.512,0 17.64,-8.568 17.64,-19.296 0,-10.44 -7.128,-18.936 -17.64,-18.936 -4.752,0 -8.496,1.728 -11.232,4.608 V -46.08 h -9.36 V 0 h 9.36 v -4.248 c 2.736,2.952 6.48,4.68 11.232,4.68 z m -11.232,-17.136 v -4.32 c 0,-4.824 2.736,-7.848 7.632,-7.848 h 4.32 c 4.896,0 8.28,3.744 8.28,10.008 0,6.264 -3.384,10.008 -8.28,10.008 h -4.32 c -4.896,0 -7.632,-3.024 -7.632,-7.848 z" stroke-width="0" stroke-linejoin="miter" stroke-miterlimit="2" fill="#fff" stroke="#0068c4" transform="translate(0 345.06999999999994) translate(502.27297500000003 -18.75999999999999) scale(2.5) translate(-508.45119 46.08)"/>
        <path id="path446901" style="font-style:normal;font-weight:normal;font-size:72px;line-height:1;font-family:'Brandmark Sans 30 Bold';font-variant-ligatures:normal;text-align:center;text-anchor:middle" d="m 559.08294,0 0.072,-37.44 h -9.36 V 0 Z m -9.288,-40.32 h 9.36 v -5.76 h -9.36 z" stroke-width="0" stroke-linejoin="miter" stroke-miterlimit="2" fill="#fff" stroke="#0068c4" transform="translate(0 345.06999999999994) translate(605.6323500000001 -18.75999999999999) scale(2.5) translate(-549.79494 46.08)"/>
        <path id="path446903" style="font-style:normal;font-weight:normal;font-size:72px;line-height:1;font-family:'Brandmark Sans 30 Bold';font-variant-ligatures:normal;text-align:center;text-anchor:middle" d="m 573.97456,-37.44 h -11.232 l 12.024,18.432 L 561.59056,0 h 11.376 l 8.064,-11.664 7.92,11.664 h 11.376 l -13.032,-19.224 11.88,-18.216 h -11.232 l -6.984,10.656 z" stroke-width="0" stroke-linejoin="miter" stroke-miterlimit="2" fill="#fff" stroke="#0068c4" transform="translate(0 345.06999999999994) translate(635.1214 2.8400000000000034) scale(2.5) translate(-561.59056 37.44)"/>
      </g>
      <image id="icon" x="0" y="0" style="display: none;" xlink:href=""/>
    </g>
  </g>
</svg>