<?xml version="1.0" encoding="utf-8"?>
<svg viewBox="280.7766 331.008 462.4575 105.9941" width="462.457px" height="105.994px" xmlns="http://www.w3.org/2000/svg" xmlns:xlink="http://www.w3.org/1999/xlink">
  <g id="logo-group">
    <image id="container" x="272" y="144" width="480" height="480" style="display: none;" transform="translate(0 0)" xlink:href=""/>
    <g id="logo-center" transform="translate(0 0)">
      <image id="icon_container" x="0" y="0" style="display: none;" xlink:href=""/>
      <g id="slogan" style="font-style:normal;font-weight:600;font-size:32px;line-height:1;font-family:Raleway;font-variant-ligatures:none;text-align:center;text-anchor:middle" transform="translate(0 0)"/>
      <g id="title" style="font-style:normal;font-weight:400;font-size:72px;line-height:1;font-family:'Brandmark Dots 1 Color';font-variant-ligatures:normal;text-align:center;text-anchor:middle" transform="translate(0 0)">
        <g id="path320911" aria-label="V" transform="translate(0 332.70399999999995) translate(280.77656 0.8960000000000008) scale(2) translate(-400.0565 50.4)">
          <path class="c1" d="M104.3493,122.38545c-0.71973,1.72852-2.44824,2.87988-4.3916,2.87988 c-1.87207,0-3.60059-1.15137-4.32031-2.87988l-17.8584-40.89941c-1.08008-2.44824,0-5.25684,2.44824-6.26465 c2.37695-1.08008,5.18457,0,6.26465,2.44824l13.53711,31.10645l7.77734-18.00098c1.00781-2.37695,3.81641-3.45703,6.26465-2.44824 c2.37598,1.08008,3.52832,3.8877,2.44824,6.33594L104.3493,122.38545z" transform="translate(322.695853 -125.18975)" stroke-width="0" stroke-linejoin="miter" stroke-miterlimit="2" fill="#0068c4" stroke="#0068c4"/>
          <path class="c3" d="M122.63934,79.5417c0,2.66406-2.08789,4.82422-4.75293,4.82422c-2.5918,0-4.75195-2.16016-4.75195-4.82422 c0-2.5918,2.16016-4.75195,4.75195-4.75195C120.55145,74.78975,122.63934,76.94991,122.63934,79.5417z" transform="translate(322.695853 -125.18975)" stroke-width="0" stroke-linejoin="miter" stroke-miterlimit="2" fill="#5bcae9" stroke="#5bcae9"/>
        </g>
        <g id="path320913" aria-label="i" transform="translate(0 332.70399999999995) translate(393.53444 -1.695999999999998) scale(2) translate(-454.43544 51.696)">
          <path class="c3" d="M95.21143,78.2458c0-2.59277,2.16016-4.75293,4.75293-4.75293c2.66406,0,4.82422,2.16016,4.82422,4.75293 c0,2.66406-2.16016,4.82422-4.82422,4.82422C97.37158,83.07002,95.21143,80.90987,95.21143,78.2458z" transform="translate(359.22401 -125.18887)" stroke-width="0" stroke-linejoin="miter" stroke-miterlimit="2" fill="#5bcae9" stroke="#5bcae9"/>
          <path class="c1" d="M95.21143,120.44112V92.57491c0-2.5918,2.16016-4.75195,4.75293-4.75195 c2.66406,0,4.82422,2.16016,4.82422,4.75195v27.86621c0,2.59277-2.16016,4.75293-4.82422,4.75293 C97.37158,125.19405,95.21143,123.03389,95.21143,120.44112z" transform="translate(359.22401 -125.18887)" stroke-width="0" stroke-linejoin="miter" stroke-miterlimit="2" fill="#0068c4" stroke="#0068c4"/>
        </g>
        <g id="path320915" aria-label="a" transform="translate(0 332.70399999999995) translate(436.3012599999999 0.8960000000000008) scale(2) translate(-473.81885 50.4)">
          <path class="c1" d="M117.13755,104.6003l-12.81689-27.07422c-0.79199-1.65625-2.52051-2.73633-4.32031-2.73633 c-1.87207,0-3.52832,1.08008-4.32031,2.73633l-19.44189,40.82715c-1.08008,2.37598-0.07178,5.25684,2.3042,6.4082 c2.37598,1.08008,5.18457,0.07227,6.33643-2.30371l4.53662-9.50488h24.19385c1.65625,0,3.09619-0.86426,3.96045-2.16016 C119.22593,108.34444,117.92954,106.25655,117.13755,104.6003z M93.30357,104.74385l6.69678-14.11328l6.76855,14.11328H93.30357z" transform="translate(398.013031 -125.18975)" stroke-width="0" stroke-linejoin="miter" stroke-miterlimit="2" fill="#0068c4" stroke="#0068c4"/>
          <path class="c3" d="M124.19419,120.44112c0,2.59277-2.16016,4.75293-4.82422,4.75293 c-2.59229,0-4.75244-2.16016-4.75244-4.75293c0-2.66406,2.16016-4.82422,4.75244-4.82422 C122.03403,115.6169,124.19419,117.77705,124.19419,120.44112z" transform="translate(398.013031 -125.18975)" stroke-width="0" stroke-linejoin="miter" stroke-miterlimit="2" fill="#5bcae9" stroke="#5bcae9"/>
        </g>
        <g id="path320917" aria-label="z" transform="translate(0 332.70399999999995) translate(544.7631999999999 0.8960000000000008) scale(2) translate(-526.04982 50.4)">
          <path class="c1" d="M101.07981,125.19405H84.59055c-1.80078,0-3.45703-1.00879-4.24902-2.59277 c-0.79199-1.65625-0.64746-3.59961,0.43262-5.04004l24.76953-33.19531H85.95774c-2.66406,0-4.82422-2.16016-4.82422-4.82422 c0-2.5918,2.16016-4.75195,4.82422-4.75195h29.09082c1.80078,0,3.45605,1.00781,4.24902,2.66406 c0.79199,1.58398,0.64746,3.52832-0.43262,4.96875l-24.77051,33.2666h6.98535c2.5918,0,4.75195,2.08789,4.75195,4.75195 C105.83176,123.03389,103.67161,125.19405,101.07981,125.19405z" transform="translate(446.210687 -125.18976)" stroke-width="0" stroke-linejoin="miter" stroke-miterlimit="2" fill="#0068c4" stroke="#0068c4"/>
          <path class="c3" d="M120.16087,120.44112c0,2.59277-2.16016,4.75293-4.75195,4.75293 c-2.66406,0-4.82422-2.16016-4.82422-4.75293c0-2.66406,2.16016-4.75195,4.82422-4.75195 C118.00071,115.68916,120.16087,117.77705,120.16087,120.44112z" transform="translate(446.210687 -125.18976)" stroke-width="0" stroke-linejoin="miter" stroke-miterlimit="2" fill="#5bcae9" stroke="#5bcae9"/>
        </g>
        <g id="path320919" aria-label="o" transform="translate(0 332.70399999999995) translate(637.09544 -1.695999999999998) scale(2) translate(-570.21594 51.696)">
          <path class="c1" d="M99.96436,126.48994c-14.61719,0-26.49902-11.88086-26.49902-26.57031 c0-8.20898,3.74512-15.69727,10.22559-20.80957c2.01563-1.58398,5.04004-1.22461,6.69629,0.86426 c1.58398,2.01563,1.22363,5.04004-0.86426,6.69629c-4.10449,3.24023-6.48047,7.99219-6.48047,13.24902 c0,9.36035,7.56055,16.99316,16.92188,16.99316c9.36035,0,16.99316-7.63281,16.99316-16.99316 c0-5.25684-2.37598-10.00879-6.55273-13.24902c-2.08789-1.65625-2.44824-4.68066-0.79199-6.69629 c1.58398-2.08887,4.6084-2.44824,6.69629-0.86426c6.48047,5.1123,10.22559,12.60059,10.22559,20.80957 C126.53467,114.60909,114.58154,126.48994,99.96436,126.48994z" transform="translate(496.7506 -125.18887)" stroke-width="0" stroke-linejoin="miter" stroke-miterlimit="2" fill="#0068c4" stroke="#0068c4"/>
          <path class="c3" d="M99.96436,73.49287c2.66406,0,4.82422,2.16016,4.82422,4.8252c0,2.5918-2.16016,4.75195-4.82422,4.75195 c-2.59277,0-4.75293-2.16016-4.75293-4.75195C95.21143,75.65303,97.37158,73.49287,99.96436,73.49287z" transform="translate(496.7506 -125.18887)" stroke-width="0" stroke-linejoin="miter" stroke-miterlimit="2" fill="#5bcae9" stroke="#5bcae9"/>
        </g>
      </g>
      <image id="icon" x="0" y="0" style="display: none;" xlink:href=""/>
    </g>
  </g>
</svg>